<?xml version="1.0" encoding="UTF-8" standalone="no"?>
<!DOCTYPE svg PUBLIC "-//W3C//DTD SVG 20010904//EN"
              "http://www.w3.org/TR/2001/REC-SVG-20010904/DTD/svg10.dtd">

<svg xmlns="http://www.w3.org/2000/svg"
     width="1.77778in" height="1.77778in"
     viewBox="0 0 128 128">
  <path id="Selection"
        fill="#209cee" stroke="#209cee" stroke-width="1"
        d="M 8.00,0.85
           C -2.91,6.85 0.00,19.34 0.00,30.00
             0.00,30.00 0.00,112.00 0.00,112.00
             0.02,123.59 4.33,127.94 16.00,128.00
             16.00,128.00 111.00,128.00 111.00,128.00
             123.03,127.98 127.98,124.51 128.00,112.00
             128.00,112.00 128.00,17.00 128.00,17.00
             127.98,4.97 124.51,0.02 112.00,0.00
             112.00,0.00 43.00,0.00 43.00,0.00
             35.30,0.00 14.14,-0.83 8.00,0.85 Z
           M 49.00,16.43
           C 50.88,16.73 51.10,16.43 52.91,17.61
             55.49,19.29 67.47,34.46 70.41,38.00
             70.41,38.00 96.75,70.00 96.75,70.00
             99.66,73.49 108.15,83.25 109.47,87.00
             110.15,89.20 109.91,92.71 109.47,95.00
             107.38,108.05 95.69,112.49 83.91,112.93
             81.69,113.02 79.17,113.09 77.17,111.98
             74.89,110.71 71.83,106.54 70.00,104.42
             70.00,104.42 56.58,89.00 56.58,89.00
             56.58,89.00 31.73,60.00 31.73,60.00
             28.97,56.77 21.19,48.39 19.79,45.01
             18.94,42.61 19.28,40.30 19.79,37.83
             21.29,28.37 26.01,22.31 35.00,18.76
             39.45,17.00 44.28,16.83 49.00,16.43 Z
           M 110.00,16.00
           C 110.00,16.00 110.00,65.00 110.00,65.00
             110.06,65.00 66.88,16.38 66.88,16.25
             66.88,16.25 110.00,16.00 110.00,16.00 Z
           M 20.00,64.00
           C 20.00,64.00 62.00,113.00 62.00,113.00
             62.00,113.00 20.00,113.00 20.00,113.00
             20.00,113.00 20.00,64.00 20.00,64.00 Z
           M 153.31,19.19" />
</svg>
